# AST/ASF file generated using VICON BodyLanguage
# -----------------------------------------------
:version 1.10
:name VICON
:units
  mass 1.0
  length 0.45
  angle deg
:documentation
   .ast/.asf automatically generated from VICON data using
   VICON BodyBuilder and BodyLanguage model FoxedUp or BRILLIANT.MOD
:root
   order TX TY TZ RX RY RZ
   axis XYZ
   position 0 0 0  
   orientation 0 0 0 
:bonedata
  begin
     id 1 
     name lhipjoint
     direction 0.623415 -0.642378 0.445763 
     length 2.49859 
     axis 0 0 0  XYZ
  end
  begin
     id 2 
     name lfemur
     direction 0.34202 -0.939693 0  
     length 6.69689  
     axis 0 0 20  XYZ
    dof rx ry rz
    limits (-160.0 20.0)
           (-70.0 70.0)
           (-60.0 70.0)
  end
  begin
     id 3 
     name ltibia
     direction 0.34202 -0.939693 0   
     length 7.37574   
     axis 0 0 20   XYZ
    dof rx
    limits (-10.0 170.0)
  end
  begin
     id 4 
     name lfoot
     direction 0.084323 -0.231675 0.969132   
     length 2.09111   
     axis -90 7.62852e-016 20   XYZ
    dof rx rz
    limits (-45.0 90.0)
           (-70.0 20.0)
  end
  begin
     id 5 
     name ltoes
     direction 1.5357e-011 -4.21957e-011 1   
     length 1.04989   
     axis -90 7.62852e-016 20   XYZ
    dof rx
    limits (-90.0 20.0)
  end
  begin
     id 6 
     name rhipjoint
     direction -0.605402 -0.653903 0.45376   
     length 2.45455  
     axis 0 0 0  XYZ 
  end
  begin
     id 7 
     name rfemur
     direction -0.34202 -0.939693 0   
     length 6.64523   
     axis 0 0 -20   XYZ
    dof rx ry rz
    limits (-160.0 20.0)
           (-70.0 70.0)
           (-70.0 60.0)
  end
  begin
     id 8 
     name rtibia
     direction -0.34202 -0.939693 0   
     length 7.3339   
     axis 0 0 -20   XYZ
    dof rx
    limits (-10.0 170.0)
 end
 begin
     id 9 
     name rfoot
     direction -0.120854 -0.332043 0.93549   
     length 2.23135  
     axis -90 -7.62852e-016 -20   XYZ
    dof rx rz
    limits (-45.0 90.0)
           (-20.0 70.0)
  end
  begin
     id 10 
     name rtoes
     direction -1.53563e-011 -4.21914e-011 1   
     length 1.10614   
     axis -90 -7.62852e-016 -20   XYZ
    dof rx
    limits (-90.0 20.0)
  end
  begin
     id 11 
     name lowerback
     direction 0.0319682 0.998615 -0.0417941   
     length 2.02718   
     axis 0 0 0   XYZ
    dof rx ry rz
    limits (-20.0 45.0)
           (-30.0 30.0)
           (-30.0 30.0)
  end
  begin
     id 12 
     name upperback
     direction 7.63181e-005 0.995808 0.0914691   
     length 1.97539   
     axis 0 0 0   XYZ
    dof rx ry rz
    limits (-20.0 45.0)
           (-30.0 30.0)
           (-30.0 30.0)
  end
  begin
     id 13 
     name thorax
     direction -0.016423 0.993627 0.111514   
     length 2.00349   
     axis 0 0 0   XYZ
    dof rx ry rz
    limits (-20.0 45.0)
           (-30.0 30.0)
           (-30.0 30.0)
  end
  begin
     id 14 
     name lowerneck
     direction -0.174763 0.981668 -0.0760716   
     length 1.71436   
     axis 0 0 0   XYZ
    dof rx ry rz
    limits (-20.0 45.0)
           (-30.0 30.0)
           (-30.0 30.0)
  end
  begin
     id 15 
     name upperneck
     direction 0.345458 0.934587 -0.0848868   
     length 1.72805   
     axis 0 0 0   XYZ
    dof rx ry rz
    limits (-20.0 45.0)
           (-30.0 30.0)
           (-30.0 30.0)
  end
  begin
     id 16
     name head
     direction 0.13001 0.989848 -0.0574291  
     length 1.767  
     axis 0 0 0   XYZ
    dof rx ry rz
    limits (-20.0 45.0)
           (-30.0 30.0)
           (-30.0 30.0)
  end
  begin
     id 17 
     name lclavicle
     direction 0.952951 0.290122 0.0878234  
     length 3.54654  
     axis 0 0 0   XYZ
    dof ry rz
    limits (-20.0 10.0)
           (0.0 20.0)
  end
  begin
     id 18 
     name lhumerus
     direction 1 -4.48957e-011 -4.56525e-028   
     length 5.19807   
     axis 180 -30 -90   XYZ
    dof rx ry rz
    limits (-60.0 90.0)
           (-90.0 90.0)
           (-90.0 90.0)
  end
  begin
     id 19
     name lradius
     direction 1 -4.48979e-011 -2.0317e-027   
     length 3.0937   
     axis 180 -30 -90   XYZ
    dof rx
    limits (-10.0 170.0)
  end
  begin
     id 20
     name lwrist
     direction 1 -4.48953e-011 -3.05809e-027   
     length 1.54685   
     axis 8.48514e-016 90 90   XYZ
    dof ry
    limits (-180.0 0.0)
 end
  begin
     id 21 
     name lhand
     direction 1 -4.48952e-011 -6.11639e-027   
     length 0.672632   
     axis 3.9013e-015 90 90   XYZ
    dof rx rz
    limits (-90.0 90.0)
           (-45.0 45.0)
  end
  begin
     id 22 
     name lfingers
     direction 1 -4.48925e-011 -1.22426e-026   
     length 0.542293   
     axis 7.80276e-015 90 90   XYZ
    dof rx
    limits (0.0 90.0)
  end
  begin
     id 23
     name lthumb
     direction 0.707107 -6.3486e-011 0.707107   
     length 0.778628   
     axis -90 45 5.37419e-014   XYZ
    dof rx rz
    limits (-45.0 45.0)
           (-45.0 45.0)
  end
  begin
     id 24 
     name rclavicle
     direction -0.960732 0.273675 -0.0457849   
     length 3.52079  
     axis 0 0 0   XYZ 
    dof ry rz
    limits (-10.0 20.0)
           (-20.0 0.0)
  end
  begin
     id 25 
     name rhumerus
     direction -1 -4.48976e-011 -1.63613e-027  
     length 5.45222   
     axis 180 30 90   XYZ
    dof rx ry rz
    limits (-90.0 60.0)
           (-90.0 90.0)
           (-90.0 90.0)
  end
  begin
     id 26 
     name rradius
     direction -1 -4.48957e-011 -7.00033e-028   
     length 3.01284   
     axis 180 30 90   XYZ
    dof rx
    limits (-10.0 170.0)
  end
  begin
     id 27 
     name rwrist
     direction -1 -4.48983e-011 -3.05543e-027   
     length 1.50642   
     axis 8.48514e-016 -90 -90   XYZ
    dof ry
    limits (-180.0 0.0)
  end
  begin
     id 28
     name rhand
     direction -1 -4.48984e-011 -6.11072e-027   
     length 0.622296   
     axis 3.9013e-015 -90 -90   XYZ
    dof rx rz
    limits (-90.0 90.0)
           (-45.0 45.0)
  end
  begin
     id 29
     name rfingers
     direction -1 -4.48865e-011 -1.22637e-026   
     length 0.501711   
     axis 7.80276e-015 -90 -90   XYZ
    dof rx
    limits (0.0 90.0)
  end
  begin
     id 30
     name rthumb
     direction -0.707107 -6.34932e-011 0.707107   
     length 0.72036   
     axis -90 -45 -5.37419e-014   XYZ
    dof rx rz
    limits (-45.0 45.0)
           (-45.0 45.0)
  end
:hierarchy
  begin
    root lhipjoint rhipjoint lowerback
    lhipjoint lfemur
    lfemur ltibia
    ltibia lfoot
    lfoot ltoes
    rhipjoint rfemur
    rfemur rtibia
    rtibia rfoot
    rfoot rtoes
    lowerback upperback
    upperback thorax
    thorax lowerneck lclavicle rclavicle
    lowerneck upperneck
    upperneck head
    lclavicle lhumerus
    lhumerus lradius
    lradius lwrist
    lwrist lhand lthumb
    lhand lfingers
    rclavicle rhumerus
    rhumerus rradius
    rradius rwrist
    rwrist rhand rthumb
    rhand rfingers
  end

#!OML:ASF H:\Not Pregnant\Project 1\Capture day 1\Session 1\non-pregnant.ASF
:FULLY-SPECIFIED
:DEGREES
288
root -5.6455 16.5897 -3.21903 -171.592 -2.21637 -181.381
lowerback 2.02604 0.885816 -2.3335
upperback -5.97183 0.680456 -0.981396
thorax -7.39012 0.306527 0.238935
lowerneck 20.9525 -6.42459 -29.3548
upperneck -10.9096 -17.462 42.1571
head 0.493457 -12.3292 21.9869
rclavicle 1.98785e-016 -1.2921e-014
rhumerus -40.5594 -17.0887 -75.5212
rradius 25.4687
rwrist 24.6561
rhand -6.81524 -0.509622
rfingers 7.12502
rthumb 19.0485 -29.5969
lclavicle 1.98785e-016 -1.2921e-014
lhumerus -45.5636 -1.63679 83.6436
lradius 29.1629
lwrist 32.9257
lhand -12.2204 -8.50881
lfingers 7.12502
lthumb 13.8446 21.0104
rfemur -15.275 -4.53186 18.5047
rtibia 63.3218
rfoot 11.9023 23.1205
rtoes -26.2549
lfemur -27.0991 -2.01751 -25.4425
ltibia 28.2086
lfoot -8.94665 -15.1845
ltoes 0.0853869
289
root -5.63758 16.586 -3.11413 -171.439 -2.07921 -181.224
lowerback 1.78831 0.993845 -2.17919
upperback -6.05161 0.827735 -0.98509
thorax -7.33746 0.364879 0.139406
lowerneck 21.0344 -6.43899 -29.3165
upperneck -10.882 -17.5203 42.1707
head 0.506927 -12.3707 21.9837
rclavicle 1.80149e-015 1.59028e-015
rhumerus -40.7409 -17.4383 -75.2323
rradius 25.1124
rwrist 25.1921
rhand -6.72249 -0.505717
rfingers 7.12502
rthumb 19.1377 -29.5841
lclavicle 1.80149e-015 1.59028e-015
lhumerus -46.0216 -1.56197 83.3121
lradius 29.0717
lwrist 33.0427
lhand -12.147 -8.52494
lfingers 7.12502
lthumb 13.9153 20.9894
rfemur -14.1208 -4.2044 18.7953
rtibia 61.2379
rfoot 11.7232 23.4311
rtoes -25.7987
lfemur -27.7435 -2.05638 -25.2055
ltibia 28.3084
lfoot -8.66151 -15.0818
ltoes 0.022602
290
root -5.62965 16.581 -3.00704 -171.275 -1.94707 -181.042
lowerback 1.55521 1.10225 -1.991
upperback -6.13421 0.976659 -0.982658
thorax -7.28912 0.422282 0.0279592
lowerneck 21.1091 -6.4539 -29.2882
upperneck -10.8468 -17.5828 42.1873
head 0.527141 -12.4137 21.9823
rclavicle -2.11209e-015 1.19271e-015
rhumerus -40.9171 -17.7612 -74.96
rradius 24.7996
rwrist 25.6906
rhand -6.61975 -0.520113
rfingers 7.12502
rthumb 19.2365 -29.5887
lclavicle -2.11209e-015 1.19271e-015
lhumerus -46.4762 -1.53851 83.0117
lradius 29.0321
lwrist 33.1878
lhand -12.1342 -8.59173
lfingers 7.12502
lthumb 13.9277 20.9218
rfemur -13.0101 -3.90554 19.1305
rtibia 59.0488
rfoot 11.467 23.5785
rtoes -25.3477
lfemur -28.4302 -2.10095 -24.935
ltibia 28.4462
lfoot -8.37984 -14.9696
ltoes -0.0382228
291
root -5.62195 16.5746 -2.89784 -171.104 -1.80442 -180.86
lowerback 1.33079 1.21481 -1.79625
upperback -6.21928 1.12995 -0.98085
thorax -7.24751 0.481317 -0.0874855
lowerneck 21.1776 -6.4673 -29.2705
upperneck -10.8051 -17.6464 42.2068
head 0.552351 -12.4569 21.9839
rclavicle -1.52443e-014 0
rhumerus -41.0806 -18.0422 -74.7141
rradius 24.5302
rwrist 26.1318
rhand -6.49478 -0.573805
rfingers 7.12502
rthumb 19.3567 -29.6304
lclavicle -1.52443e-014 0
lhumerus -46.9251 -1.55696 82.7462
lradius 29.0292
lwrist 33.3239
lhand -12.2086 -8.68243
lfingers 7.12502
lthumb 13.856 20.836
rfemur -11.947 -3.63333 19.4713
rtibia 56.7667
rfoot 11.2202 23.5775
rtoes -24.7905
lfemur -29.1529 -2.14283 -24.662
ltibia 28.6194
lfoot -8.10364 -14.8436
ltoes -0.0928753
292
root -5.61429 16.5666 -2.78622 -170.926 -1.66285 -180.657
lowerback 1.11732 1.32845 -1.57196
upperback -6.3076 1.28512 -0.973852
thorax -7.21412 0.539675 -0.213584
lowerneck 21.2462 -6.4781 -29.2617
upperneck -10.7596 -17.7105 42.2296
head 0.580288 -12.5005 21.9895
rclavicle -1.45734e-014 6.36111e-015
rhumerus -41.2311 -18.2917 -74.4917
rradius 24.2986
rwrist 26.5298
rhand -6.36884 -0.631275
rfingers 7.12502
rthumb 19.4778 -29.6757
lclavicle -1.45734e-014 6.36111e-015
lhumerus -47.387 -1.63619 82.5269
lradius 29.1038
lwrist 33.4854
lhand -12.3631 -8.79278
lfingers 7.12502
lthumb 13.707 20.7358
rfemur -10.9275 -3.3903 19.84
rtibia 54.3965
rfoot 11.1261 23.4814
rtoes -23.6614
lfemur -29.9139 -2.17948 -24.362
ltibia 28.8262
lfoot -7.825 -14.7209
ltoes -0.111546
293
root -5.60631 16.557 -2.67182 -170.737 -1.51974 -180.45
lowerback 0.910117 1.44279 -1.34163
upperback -6.39593 1.44038 -0.965661
thorax -7.18321 0.597651 -0.341173
lowerneck 21.3188 -6.48735 -29.2604
upperneck -10.7231 -17.7743 42.2593
head 0.607116 -12.5451 22.0022
rclavicle -4.73356e-015 6.16232e-015
rhumerus -41.3574 -18.5099 -74.2984
rradius 24.0987
rwrist 26.8781
rhand -6.25099 -0.691368
rfingers 7.12502
rthumb 19.5911 -29.7243
lclavicle -4.73356e-015 6.16232e-015
lhumerus -47.8326 -1.75284 82.3423
lradius 29.2183
lwrist 33.6658
lhand -12.604 -8.91779
lfingers 7.12502
lthumb 13.4749 20.6263
rfemur -9.95437 -3.16542 20.2113
rtibia 51.9631
rfoot 11.1918 23.4062
rtoes -21.8768
lfemur -30.7108 -2.20827 -24.0536
ltibia 29.0537
lfoot -7.54389 -14.6033
ltoes -0.0901167
294
root -5.59795 16.546 -2.55482 -170.547 -1.3906 -180.23
lowerback 0.709131 1.55291 -1.09094
upperback -6.47491 1.59126 -0.95427
thorax -7.14421 0.652764 -0.475744
lowerneck 21.3864 -6.50113 -29.261
upperneck -10.7011 -17.8399 42.2938
head 0.633104 -12.5906 22.0173
rclavicle -1.54307e-014 3.37934e-015
rhumerus -41.4375 -18.7233 -74.1278
rradius 23.9115
rwrist 27.2123
rhand -6.14372 -0.728222
rfingers 7.12502
rthumb 19.6942 -29.7506
lclavicle -1.54307e-014 3.37934e-015
lhumerus -48.2492 -1.87858 82.1617
lradius 29.3806
lwrist 33.8647
lhand -12.8378 -9.04853
lfingers 7.12502
lthumb 13.2496 20.5104
rfemur -9.01598 -2.95234 20.5918
rtibia 49.5007
rfoot 11.3338 23.4541
rtoes -19.7837
lfemur -31.5244 -2.23154 -23.7261
ltibia 29.2885
lfoot -7.25183 -14.5071
ltoes -0.0405963
295
root -5.58919 16.5344 -2.43526 -170.356 -1.26911 -180.007
lowerback 0.518307 1.65988 -0.832434
upperback -6.54771 1.73799 -0.941249
thorax -7.10318 0.705703 -0.612139
lowerneck 21.46 -6.51232 -29.2655
upperneck -10.6971 -17.8996 42.3347
head 0.65246 -12.6342 22.0405
rclavicle -7.30534e-015 -7.95139e-016
rhumerus -41.4961 -18.8907 -73.9961
rradius 23.7686
rwrist 27.4863
rhand -6.04529 -0.760496
rfingers 7.12502
rthumb 19.7888 -29.7731
lclavicle -7.30534e-015 -7.95139e-016
lhumerus -48.6388 -1.997 81.9744
lradius 29.5856
lwrist 34.0974
lhand -13.0417 -9.14583
lfingers 7.12502
lthumb 13.053 20.4257
rfemur -8.12438 -2.73451 20.9644
rtibia 47.0737
rfoot 11.3385 23.6894
rtoes -17.8476
lfemur -32.3429 -2.24507 -23.3914
ltibia 29.506
lfoot -6.93658 -14.4354
ltoes -0.00845947
296
root -5.58005 16.5226 -2.31293 -170.162 -1.1543 -179.778
lowerback 0.34391 1.76466 -0.562306
upperback -6.61947 1.88151 -0.926752
thorax -7.06916 0.756499 -0.753019
lowerneck 21.5389 -6.52056 -29.2735
upperneck -10.7039 -17.9535 42.3783
head 0.666521 -12.6755 22.0688
rclavicle 1.06971e-014 -9.34288e-015
rhumerus -41.5246 -19.0023 -73.9129
rradius 23.6644
rwrist 27.6814
rhand -5.95228 -0.800907
rfingers 7.12502
rthumb 19.8782 -29.8043
lclavicle 1.06971e-014 -9.34288e-015
lhumerus -48.9991 -2.09971 81.7709
lradius 29.8205
lwrist 34.3511
lhand -13.2052 -9.23162
lfingers 7.12502
lthumb 12.8954 20.35
rfemur -7.29501 -2.49266 21.3312
rtibia 44.7584
rfoot 10.9892 24.092
rtoes -16.4972
lfemur -33.1557 -2.24485 -23.047
ltibia 29.6828
lfoot -6.57717 -14.3968
ltoes 0.0462343
297
root -5.57073 16.5115 -2.18779 -169.964 -1.02453 -179.552
lowerback 0.187185 1.87328 -0.289971
upperback -6.68932 2.02935 -0.915795
thorax -7.04201 0.809238 -0.898964
lowerneck 21.6219 -6.52425 -29.2856
upperneck -10.7244 -17.9995 42.4287
head 0.674647 -12.7141 22.1058
rclavicle 3.05756e-014 5.56597e-015
rhumerus -41.5269 -19.0577 -73.8798
rradius 23.6006
rwrist 27.8061
rhand -5.8792 -0.825571
rfingers 7.12502
rthumb 19.9485 -29.8217
lclavicle 3.05756e-014 5.56597e-015
lhumerus -49.3179 -2.17247 81.5381
lradius 30.0639
lwrist 34.6147
lhand -13.3214 -9.27488
lfingers 7.12502
lthumb 12.7833 20.3138
rfemur -6.55078 -2.20511 21.6784
rtibia 42.6386
rfoot 10.0745 24.6119
rtoes -16.1864
lfemur -33.9503 -2.22609 -22.7033
ltibia 29.7986
lfoot -6.16926 -14.3754
ltoes 0.0734529
298
root -5.56144 16.502 -2.05976 -169.76 -0.882372 -179.32
lowerback 0.0554955 1.98567 -0.00340997
upperback -6.76181 2.18196 -0.90487
thorax -7.03045 0.863331 -1.05343
lowerneck 21.7054 -6.52408 -29.3071
upperneck -10.7516 -18.0409 42.4844
head 0.681031 -12.7507 22.15
rclavicle 5.65294e-015 6.36111e-015
rhumerus -41.5132 -19.0301 -73.9118
rradius 23.6019
rwrist 27.8226
rhand -5.82151 -0.860942
rfingers 7.12502
rthumb 20.0039 -29.8513
lclavicle 5.65294e-015 6.36111e-015
lhumerus -49.6083 -2.23328 81.2955
lradius 30.3252
lwrist 34.9014
lhand -13.4031 -9.30978
lfingers 7.12502
lthumb 12.7046 20.2838
rfemur -5.91629 -1.87999 22.0214
rtibia 40.7737
rfoot 8.53729 25.0891
rtoes -16.8779
lfemur -34.7232 -2.18855 -22.3506
ltibia 29.8445
lfoot -5.71482 -14.371
ltoes 0.0970482
299
root -5.55218 16.4938 -1.92835 -169.548 -0.710765 -179.086
lowerback -0.0514757 2.10803 0.292848
upperback -6.8333 2.3481 -0.895089
thorax -7.03018 0.923484 -1.21563
lowerneck 21.7786 -6.5257 -29.3464
upperneck -10.7854 -18.0865 42.55
head 0.693402 -12.7894 22.202
rclavicle -2.41648e-014 -4.37326e-015
rhumerus -41.4647 -18.9568 -73.9909
rradius 23.6402
rwrist 27.7756
rhand -5.78987 -0.886069
rfingers 7.12502
rthumb 20.0343 -29.8732
lclavicle -2.41648e-014 -4.37326e-015
lhumerus -49.8549 -2.28043 81.0497
lradius 30.5892
lwrist 35.1859
lhand -13.4749 -9.33766
lfingers 7.12502
lthumb 12.6353 20.2602
rfemur -5.40989 -1.51878 22.3587
rtibia 39.1871
rfoot 6.42532 25.3869
rtoes -18.3859
lfemur -35.4785 -2.13032 -21.9907
ltibia 29.8245
lfoot -5.22437 -14.3647
ltoes 0.125519
300
root -5.54264 16.4861 -1.79347 -169.334 -0.510374 -178.843
lowerback -0.131304 2.24153 0.603703
upperback -6.89791 2.53083 -0.884186
thorax -7.03581 0.991384 -1.38618
lowerneck 21.8454 -6.52991 -29.409
upperneck -10.8331 -18.14 42.6325
head 0.712707 -12.8331 22.2675
rclavicle -1.38404e-014 -1.23246e-014
rhumerus -41.3781 -18.8666 -74.1024
rradius 23.7043
rwrist 27.7019
rhand -5.80567 -0.877898
rfingers 7.12502
rthumb 20.0192 -29.8666
lclavicle -1.38404e-014 -1.23246e-014
lhumerus -50.0622 -2.32697 80.8108
lradius 30.8748
lwrist 35.4796
lhand -13.541 -9.37078
lfingers 7.12502
lthumb 12.5717 20.231
rfemur -5.03209 -1.1397 22.7035
rtibia 37.8539
rfoot 4.01546 25.4335
rtoes -20.0054
lfemur -36.2142 -2.05818 -21.6117
ltibia 29.7502
lfoot -4.71651 -14.3402
ltoes 0.151196
301
root -5.53311 16.478 -1.65541 -169.126 -0.27719 -178.591
lowerback -0.17504 2.38689 0.931351
upperback -6.95858 2.73156 -0.86994
thorax -7.05529 1.06748 -1.56459
lowerneck 21.9085 -6.53313 -29.5063
upperneck -10.8874 -18.2031 42.7328
head 0.742549 -12.8829 22.3496
rclavicle -2.35933e-014 -4.37326e-015
rhumerus -41.2687 -18.7311 -74.2531
rradius 23.8083
rwrist 27.5673
rhand -5.86375 -0.873043
rfingers 7.12502
rthumb 19.9633 -29.8676
lclavicle -2.35933e-014 -4.37326e-015
lhumerus -50.2244 -2.36062 80.5762
lradius 31.1514
lwrist 35.7641
lhand -13.6055 -9.39907
lfingers 7.12502
lthumb 12.5095 20.2065
rfemur -4.7676 -0.771887 23.0532
rtibia 36.7161
rfoot 1.57614 25.2653
rtoes -21.2174
lfemur -36.9281 -1.97703 -21.2122
ltibia 29.6375
lfoot -4.21519 -14.2751
ltoes 0.163898
302
root -5.52341 16.4689 -1.51445 -168.937 -0.0206709 -178.335
lowerback -0.171252 1.9183 1.26929
upperback -7.01515 3.08545 -0.792845
thorax -7.10385 1.6354 -1.74621
lowerneck 21.9639 -6.53966 -29.6405
upperneck -10.946 -18.2805 42.8466
head 0.786202 -12.9395 22.4439
rclavicle -6.88292e-015 -3.97569e-016
rhumerus -41.1311 -18.5496 -74.444
rradius 23.9525
rwrist 27.3667
rhand -5.94979 -0.887138
rfingers 7.12502
rthumb 19.8806 -29.8903
lclavicle -6.88292e-015 -3.97569e-016
lhumerus -50.3454 -2.38018 80.3501
lradius 31.428
lwrist 36.0368
lhand -13.6704 -9.42638
lfingers 7.12502
lthumb 12.4469 20.183
rfemur -4.58301 -0.43336 23.405
rtibia 35.7015
rfoot -0.701069 24.9428
rtoes -22.0162
lfemur -37.6045 -1.89976 -20.7946
ltibia 29.4975
lfoot -3.74205 -14.1606
ltoes 0.205231
